HIERARCHY
ROOT Hips
{
	OFFSET	0.000000	0.000000	0.000000
	CHANNELS 6 Xposition Yposition Zposition Zrotation Xrotation Yrotation
	JOINT LeftUpLeg
	{
		OFFSET	12.811937	-7.635976	0.557276
		CHANNELS 3 Zrotation Xrotation Yrotation
		JOINT LeftLeg
		{
			OFFSET	-0.429270	-42.206159	-1.204951
			CHANNELS 3 Zrotation Xrotation Yrotation
			JOINT LeftFoot
			{
				OFFSET	-2.112259	-42.464481	-3.973220
				CHANNELS 3 Zrotation Xrotation Yrotation
				JOINT LeftFootHeel
				{
					OFFSET	0.387196	-5.329707	-3.419729
					CHANNELS 3 Zrotation Xrotation Yrotation
					End Site
					{
						OFFSET	0.327567	-0.000003	16.505428
					}
				}
			}
		}
	}
	JOINT RightUpLeg
	{
		OFFSET	-12.811937	-7.635976	0.557276
		CHANNELS 3 Zrotation Xrotation Yrotation
		JOINT RightLeg
		{
			OFFSET	0.429270	-42.206159	-1.204951
			CHANNELS 3 Zrotation Xrotation Yrotation
			JOINT RightFoot
			{
				OFFSET	2.112259	-42.464481	-3.973220
				CHANNELS 3 Zrotation Xrotation Yrotation
				JOINT RightFootHeel
				{
					OFFSET	-0.387198	-5.329707	-3.419729
					CHANNELS 3 Zrotation Xrotation Yrotation
					End Site
					{
						OFFSET	-0.327566	-0.000003	16.505428
					}
				}
			}
		}
	}
	JOINT Spine
	{
		OFFSET	0.000000	13.731315	-1.007646
		CHANNELS 3 Zrotation Xrotation Yrotation
		JOINT Spine1
		{
			OFFSET	0.000000	12.091746	-0.604589
			CHANNELS 3 Zrotation Xrotation Yrotation
			JOINT LeftShoulder
			{
				OFFSET	5.746115	20.990027	-0.833816
				CHANNELS 3 Zrotation Xrotation Yrotation
				JOINT LeftArm
				{
					OFFSET	10.881538	-1.359258	0.219250
					CHANNELS 3 Zrotation Xrotation Yrotation
					JOINT LeftForeArm
					{
						OFFSET	4.390314	-31.537147	0.202818
						CHANNELS 3 Zrotation Xrotation Yrotation
						JOINT LeftHand
						{
							OFFSET	3.168650	-24.865023	5.373370
							CHANNELS 3 Zrotation Xrotation Yrotation
							End Site
							{
								OFFSET	1.457528	-10.806075	2.170267
							}
						}
					}
				}
			}
			JOINT RightShoulder
			{
				OFFSET	-5.746115	20.990027	-0.833816
				CHANNELS 3 Zrotation Xrotation Yrotation
				JOINT RightArm
				{
					OFFSET	-10.881538	-1.359258	0.219250
					CHANNELS 3 Zrotation Xrotation Yrotation
					JOINT RightForeArm
					{
						OFFSET	-4.390314	-31.537147	0.202818
						CHANNELS 3 Zrotation Xrotation Yrotation
						JOINT RightHand
						{
							OFFSET	-3.168650	-24.865023	5.373370
							CHANNELS 3 Zrotation Xrotation Yrotation
							End Site
							{
								OFFSET	-1.457528	-10.806075	2.170267
							}
						}
					}
				}
			}
			JOINT Neck
			{
				OFFSET	0.000000	27.075639	0.680489
				CHANNELS 3 Zrotation Xrotation Yrotation
				JOINT Head
				{
					OFFSET	0.000000	12.391287	1.239129
					CHANNELS 3 Zrotation Xrotation Yrotation
					End Site
					{
						OFFSET	0.000000	13.818691	-0.105853
					}
				}
			}
		}
	}
}
MOTION
Frames:     11
Frame Time: 0.016667
-1.150317	98.110686	0.336508	-4.692742	-7.207745	-4.074186	12.165882	-4.101925	21.938723	5.841833	30.455906	7.182284	-13.051278	-12.656491	-2.994673	0.	0.	0.	-8.010558	6.128702	-7.022217	-2.804287	0.885115	0.643294	13.468620	4.086757	9.474828	0.	0.	0.	5.354557	5.445231	-3.464384	-1.343492	5.235477	-0.137580	3.442715	1.093811	-4.329558	0.982662	-7.643043	-6.827120	-3.507290	1.445903	-9.835697	9.861914	-9.013626	0.962364	1.318757	2.050594	-4.065242	-0.459847	-2.640825	1.110857	-1.827971	2.625475	6.628519	-3.911762	0.295555	42.432953	-2.039934	3.838847	-6.087617	-5.949027	-0.967891	-3.165058	
-1.173107	98.107121	0.348851	-4.724158	-7.265805	-4.137194	12.189367	-3.983592	21.873709	5.832043	30.361250	7.274660	-13.080441	-12.591988	-2.980684	0.	0.	0.	-7.977532	6.149924	-6.952679	-2.795457	0.951914	0.744772	13.446340	4.024474	9.383723	0.	0.	0.	5.326283	5.454069	-3.556884	-1.320141	5.216693	-0.117461	3.463860	1.122657	-4.378736	0.945064	-7.583643	-6.863526	-3.491488	1.505645	-9.634972	9.925395	-8.832636	1.377254	1.332858	2.089032	-4.135389	-0.404641	-2.654300	1.044141	-1.798551	2.520318	6.616896	-4.013821	0.214287	42.255836	-2.020479	4.028655	-6.180630	-5.780973	-0.874691	-3.229234	
-1.193723	98.106626	0.352036	-4.737945	-7.297775	-4.148009	12.196691	-3.940143	21.826803	5.843189	30.327482	7.309023	-13.100933	-12.560625	-2.973195	0.	0.	0.	-7.955545	6.164606	-6.925663	-2.789823	0.992553	0.786404	13.423812	3.985246	9.338577	0.	0.	0.	5.282635	5.466701	-3.684791	-1.287658	5.174776	-0.087805	3.478333	1.161838	-4.340814	0.943553	-7.549086	-6.888678	-3.494960	1.509866	-9.555740	9.944236	-8.739116	1.548435	1.338236	2.141958	-4.112330	-0.377875	-2.665653	1.012615	-1.736097	2.398396	6.476670	-4.118701	0.116452	42.059612	-2.039602	4.179867	-6.274179	-5.675163	-0.860295	-3.178473	
-1.216621	98.104098	0.344530	-4.755721	-7.365636	-4.143661	12.204565	-3.865668	21.764273	5.846008	30.288666	7.341787	-13.110815	-12.525155	-2.965283	0.	0.	0.	-7.927580	6.212449	-6.905214	-2.787863	1.040136	0.818998	13.400149	3.941136	9.298218	0.	0.	0.	5.271717	5.525000	-3.760483	-1.272006	5.161818	-0.069568	3.508638	1.096744	-4.437853	0.928223	-7.453295	-6.914748	-3.471306	1.494550	-9.446391	9.970726	-8.578530	1.786079	1.340127	2.152348	-4.210819	-0.331472	-2.691373	0.966490	-1.743884	2.366805	6.559305	-4.163970	0.061969	41.950077	-2.053107	4.235517	-6.308198	-5.515761	-0.638313	-3.392267	
-1.312456	98.105541	0.348428	-4.755721	-7.365636	-4.143661	12.210630	-3.786032	21.743372	5.810841	30.179771	7.364830	-13.096927	-12.484757	-2.961835	0.	0.	0.	-7.836680	6.078944	-6.812613	-2.858557	1.319483	0.824165	13.344762	3.722935	9.240657	0.	0.	0.	5.206998	5.499741	-3.923420	-1.257271	5.176320	0.017699	3.539345	1.113306	-4.352570	0.930999	-7.451926	-7.057148	-3.444837	1.461583	-9.466522	10.041930	-8.444834	1.878981	1.341999	2.173421	-4.252419	-0.258557	-2.733744	0.919161	-1.692573	2.245842	6.487106	-4.256888	-0.124721	41.574749	-2.083491	4.302677	-6.393791	-5.260687	-0.271401	-3.639090	
-1.361719	98.093342	0.315313	-4.792840	-7.556889	-4.098139	12.210617	-3.596879	21.610674	5.910739	29.900492	7.346587	-13.134824	-12.216758	-2.889355	0.	0.	0.	-7.762100	6.198339	-6.793791	-2.899962	1.486982	0.795493	13.318565	3.604331	9.247476	0.	0.	0.	5.203063	5.675173	-4.071650	-1.241155	5.185367	0.093491	3.562702	1.082916	-4.400447	0.921567	-7.417087	-7.040368	-3.444953	1.425611	-9.572089	10.122103	-8.416253	1.824025	1.345551	2.186753	-4.253457	-0.248861	-2.746041	0.912575	-1.659853	2.187933	6.414298	-4.259796	-0.259977	41.296299	-2.131776	4.365862	-6.446156	-5.103135	-0.038080	-3.854408	
-1.389610	98.091715	0.305190	-4.790432	-7.604955	-4.058020	12.173349	-3.533884	21.549011	5.948564	29.800154	7.332735	-13.137882	-12.151201	-2.859306	0.	0.	0.	-7.740480	6.211728	-6.807240	-2.919079	1.575930	0.783690	13.305395	3.539495	9.250600	0.	0.	0.	5.205208	5.712788	-4.169493	-1.258674	5.186241	0.138791	3.574126	1.081933	-4.400854	0.919401	-7.411610	-7.031165	-3.444556	1.396219	-9.645454	10.153457	-8.408254	1.772417	1.345416	2.207138	-4.262309	-0.231632	-2.743108	0.915265	-1.660738	2.157727	6.413889	-4.175212	-0.398653	40.991348	-2.183637	4.450882	-6.464981	-4.977835	0.025766	-3.946909	
-1.424695	98.097538	0.256661	-4.734945	-7.767011	-3.901722	12.065038	-3.383179	21.370571	5.996413	29.690884	7.290437	-13.138024	-12.084886	-2.815253	0.	0.	0.	-7.768289	6.348651	-6.913214	-2.938145	1.668882	0.771169	13.294543	3.472226	9.252287	0.	0.	0.	5.155570	5.856551	-4.332849	-1.258674	5.186240	0.138790	3.574127	1.081932	-4.400855	0.926257	-7.417168	-7.038340	-3.449550	1.359558	-9.707001	10.172721	-8.401814	1.717578	1.345416	2.207137	-4.262310	-0.231631	-2.743109	0.915265	-1.660738	2.157726	6.413889	-4.175211	-0.398654	40.991348	-2.183637	4.450882	-6.464982	-4.923586	0.161316	-4.054283	
-1.523957	98.102169	0.268336	-4.696669	-7.825602	-3.838500	11.934937	-3.230244	21.302872	6.130686	29.318560	7.226832	-13.158105	-11.847883	-2.741529	0.	0.	0.	-7.725607	6.288633	-6.888683	-2.996398	1.969709	0.758786	13.267277	3.249167	9.220301	0.	0.	0.	5.113542	5.902483	-4.428090	-1.287812	5.192348	0.204853	3.607000	1.078161	-4.430771	0.977775	-7.448059	-7.038611	-3.508588	1.250932	-9.860938	10.227356	-8.404105	1.518713	1.360580	2.230978	-4.268291	-0.233824	-2.738435	0.988984	-1.593018	2.106118	6.307194	-4.064095	-0.514518	40.618130	-2.207047	4.563898	-6.447643	-4.699738	0.448459	-4.362737	
-1.603594	98.117033	0.243771	-4.607947	-7.928032	-3.689462	11.779117	-3.067312	21.149076	6.220464	29.032562	7.235187	-13.191242	-11.659264	-2.741036	0.	0.	0.	-7.744283	6.318967	-6.938381	-3.039680	2.170697	0.772791	13.247127	3.093046	9.153255	0.	0.	0.	5.019423	5.982210	-4.598516	-1.348014	5.199579	0.315880	3.657352	1.074035	-4.433299	1.017702	-7.463569	-7.088121	-3.559534	1.166254	-9.911019	10.299756	-8.377571	1.342653	1.394013	2.282740	-4.273931	-0.217844	-2.765653	1.030902	-1.532600	2.087176	6.243783	-3.970994	-0.539120	40.387905	-2.196004	4.618626	-6.457701	-4.511784	0.641393	-4.564023	
-1.725730	98.133679	0.210627	-4.502938	-8.020890	-3.388361	11.570157	-2.883200	20.851299	6.352136	28.579618	7.196944	-13.230150	-11.381783	-2.680203	0.	0.	0.	-7.722516	6.337759	-7.058136	-3.109574	2.449676	0.729284	13.215939	2.875669	9.072959	0.	0.	0.	4.912560	6.051087	-4.819402	-1.345831	5.178453	0.437203	3.622120	1.099442	-4.412464	1.053872	-7.444471	-7.090532	-3.568291	1.024598	-10.025901	10.342064	-8.335661	1.149758	1.370414	2.358978	-4.268726	-0.202989	-2.778984	1.031050	-1.436121	2.067715	6.181112	-3.827698	-0.567268	40.141689	-2.251248	4.684872	-6.410635	-4.274644	0.834301	-4.900724	
